<svg width="159" height="48" viewBox="0 0 159 48" fill="none" xmlns="http://www.w3.org/2000/svg">
<path d="M31.1902 10.6744H36.8502V19.0111H40.1202V0H36.8502V7.17399H31.1902V0H27.9102V19.0111H31.1902V10.6744Z" fill="#5B8EAE"/>
<path d="M53.5995 7.11215V19.0111H56.7195V0H54.0895L47.8895 12.2947V0H44.7695V19.0111H47.4795L53.5995 7.11215Z" fill="#5B8EAE"/>
<path d="M73.4197 12.1207V19.0103H76.1197V7.03711H74.7897L69.1297 14.075V7.03711H66.4297V19.0103H67.8997L73.4197 12.1207Z" fill="#5B8EAE"/>
<path d="M89.1596 3.38909H94.8296V19.0111H98.0896V0H85.8896V19.0111H89.1596V3.38909Z" fill="#5B8EAE"/>
<path d="M111.57 7.11215V19.0111H114.69V0H112.06L105.86 12.2947V0H102.74V19.0111H105.46L111.57 7.11215Z" fill="#5B8EAE"/>
<path d="M27.9102 42.9702H28.7602V35.7962H31.2402V34.8809H27.9102V42.9702Z" fill="#5B8EAE"/>
<path d="M35.8497 34.6699C35.3097 34.6699 34.8296 34.806 34.3896 35.0905C33.9596 35.375 33.5697 35.7955 33.2397 36.3645V34.8802H32.3896V45.938H33.2397V41.5842C33.5897 42.116 33.9896 42.5118 34.4296 42.784C34.8696 43.0561 35.3496 43.1798 35.8696 43.1798C36.7996 43.1798 37.5896 42.7592 38.2496 41.9305C38.9096 41.1018 39.2397 40.0875 39.2397 38.9001C39.2397 37.7374 38.9097 36.7355 38.2397 35.9068C37.5797 35.0781 36.7897 34.6699 35.8497 34.6699ZM38.0297 40.5699C37.7897 41.0894 37.4696 41.4976 37.0696 41.7821C36.6696 42.0666 36.2396 42.215 35.7896 42.215C35.3296 42.215 34.8897 42.0666 34.4697 41.7821C34.0497 41.4976 33.7297 41.1018 33.5097 40.6194C33.2897 40.1246 33.1796 39.5804 33.1796 38.9619C33.1796 38.0219 33.4296 37.2427 33.9296 36.6118C34.4296 35.981 35.0497 35.6718 35.7797 35.6718C36.2497 35.6718 36.6797 35.8202 37.0797 36.1047C37.4797 36.3892 37.7997 36.785 38.0297 37.3045C38.2697 37.824 38.3797 38.3682 38.3797 38.9372C38.3897 39.5062 38.2697 40.0504 38.0297 40.5699Z" fill="#5B8EAE"/>
<path d="M46.5503 36.3645C46.2203 35.7955 45.8403 35.375 45.4003 35.0905C44.9603 34.806 44.4703 34.6699 43.9303 34.6699C42.9903 34.6699 42.1903 35.0905 41.5303 35.9068C40.8603 36.7355 40.5303 37.7374 40.5303 38.9001C40.5303 40.0875 40.8603 41.1018 41.5203 41.9305C42.1803 42.7592 42.9703 43.1798 43.9103 43.1798C44.4303 43.1798 44.9203 43.0437 45.3603 42.784C45.8003 42.5118 46.2003 42.116 46.5503 41.5842V42.9819H47.3803V34.8802H46.5503V36.3645ZM46.2703 40.6194C46.0503 41.1141 45.7303 41.4976 45.3103 41.7821C44.9003 42.0666 44.4603 42.215 43.9903 42.215C43.5303 42.215 43.1003 42.0666 42.7003 41.7821C42.3003 41.4976 41.9803 41.0894 41.7403 40.5699C41.5003 40.0504 41.3803 39.5062 41.3803 38.9372C41.3803 38.3682 41.5003 37.8116 41.7303 37.3045C41.9703 36.785 42.2803 36.3892 42.6803 36.1047C43.0803 35.8202 43.5103 35.6718 43.9803 35.6718C44.7103 35.6718 45.3303 35.981 45.8303 36.6118C46.3303 37.2427 46.5803 38.0219 46.5803 38.9619C46.6003 39.5804 46.4903 40.137 46.2703 40.6194Z" fill="#5B8EAE"/>
<path d="M52.32 34.8809H51.88L49.34 42.092H48.54V44.0586H49.37V42.9825H54.81V44.0215H55.63V42.1043H54.85L52.32 34.8809ZM50.16 42.092L52.08 36.4888L53.93 42.092H50.16Z" fill="#5B8EAE"/>
<path d="M59.8902 34.6699C58.8702 34.6699 58.0302 35.1276 57.3602 36.0305C56.7502 36.8592 56.4502 37.824 56.4502 38.9496C56.4502 40.0752 56.7702 41.0647 57.4102 41.9181C58.0502 42.7592 58.8702 43.1921 59.8802 43.1921C60.8902 43.1921 61.7102 42.7716 62.3502 41.9181C62.9902 41.077 63.3102 40.0875 63.3102 38.9496C63.3102 37.824 63.0102 36.8469 62.4002 36.0305C61.7502 35.1152 60.9102 34.6699 59.8902 34.6699ZM62.1202 40.607C61.8902 41.1141 61.5802 41.4976 61.1902 41.7821C60.8002 42.0542 60.3702 42.1902 59.9002 42.1902C59.4302 42.1902 59.0002 42.0542 58.6102 41.7821C58.2202 41.51 57.9102 41.1141 57.6802 40.607C57.4502 40.0999 57.3302 39.5557 57.3302 38.9743C57.3302 38.0714 57.5802 37.2921 58.0902 36.649C58.6002 36.0058 59.2002 35.6842 59.9002 35.6842C60.6002 35.6842 61.2002 36.0058 61.7102 36.649C62.2202 37.2921 62.4702 38.059 62.4702 38.9743C62.4602 39.5557 62.3502 40.0999 62.1202 40.607Z" fill="#5B8EAE"/>
<path d="M68.2301 35.6477C69.2301 35.6477 70.0201 36.1177 70.6001 37.0701L71.2701 36.5507C71.0701 36.1425 70.8301 35.8085 70.5501 35.5488C70.2701 35.289 69.9201 35.0664 69.5201 34.9056C69.1101 34.7448 68.6901 34.6582 68.2601 34.6582C67.5701 34.6582 66.9401 34.8437 66.3801 35.2272C65.8201 35.6106 65.3801 36.1301 65.0601 36.798C64.7401 37.466 64.5801 38.1957 64.5801 38.9873C64.5801 40.15 64.9201 41.1395 65.6101 41.9559C66.3001 42.7722 67.1601 43.1804 68.2001 43.1804C68.8801 43.1804 69.4801 43.0196 70.0101 42.698C70.5401 42.3764 70.9601 41.9188 71.2801 41.3374L70.6101 40.7932C70.0001 41.7456 69.2101 42.2156 68.2401 42.2156C67.7101 42.2156 67.2401 42.0672 66.8101 41.7827C66.3901 41.4982 66.0501 41.0901 65.8101 40.5706C65.5701 40.0511 65.4401 39.4945 65.4401 38.9008C65.4401 37.9978 65.7001 37.2186 66.2301 36.5878C66.7601 35.9693 67.4301 35.6477 68.2301 35.6477Z" fill="#5B8EAE"/>
<path d="M72.1602 35.7714H73.9002V42.9702H74.7502V35.7714H76.4902V34.8809H72.1602V35.7714Z" fill="#5B8EAE"/>
<path d="M81.1104 34.6699C80.5704 34.6699 80.0904 34.806 79.6504 35.0905C79.2204 35.375 78.8304 35.7955 78.5004 36.3645V34.8802H77.6504V45.938H78.5004V41.5842C78.8504 42.116 79.2504 42.5118 79.6904 42.784C80.1304 43.0561 80.6104 43.1798 81.1304 43.1798C82.0604 43.1798 82.8504 42.7592 83.5104 41.9305C84.1704 41.1018 84.5004 40.0875 84.5004 38.9001C84.5004 37.7374 84.1704 36.7355 83.5004 35.9068C82.8304 35.0781 82.0404 34.6699 81.1104 34.6699ZM83.2904 40.5699C83.0504 41.0894 82.7304 41.4976 82.3304 41.7821C81.9304 42.0666 81.5004 42.215 81.0504 42.215C80.5904 42.215 80.1504 42.0666 79.7304 41.7821C79.3104 41.4976 78.9904 41.1018 78.7704 40.6194C78.5504 40.1246 78.4404 39.5804 78.4404 38.9619C78.4404 38.0219 78.6904 37.2427 79.1904 36.6118C79.6904 35.981 80.3104 35.6718 81.0404 35.6718C81.5104 35.6718 81.9404 35.8202 82.3404 36.1047C82.7404 36.3892 83.0604 36.785 83.2904 37.3045C83.5304 37.824 83.6404 38.3682 83.6404 38.9372C83.6504 39.5062 83.5304 40.0504 83.2904 40.5699Z" fill="#5B8EAE"/>
<path d="M89.1998 34.6699C88.1798 34.6699 87.3398 35.1276 86.6698 36.0305C86.0598 36.8592 85.7598 37.824 85.7598 38.9496C85.7598 40.0752 86.0798 41.0647 86.7198 41.9181C87.3598 42.7592 88.1798 43.1921 89.1898 43.1921C90.1998 43.1921 91.0198 42.7716 91.6598 41.9181C92.2998 41.077 92.6198 40.0875 92.6198 38.9496C92.6198 37.824 92.3198 36.8469 91.7098 36.0305C91.0598 35.1152 90.2198 34.6699 89.1998 34.6699ZM91.4298 40.607C91.1998 41.1141 90.8898 41.4976 90.4998 41.7821C90.1098 42.0542 89.6798 42.1902 89.2098 42.1902C88.7398 42.1902 88.3098 42.0542 87.9198 41.7821C87.5298 41.51 87.2198 41.1141 86.9898 40.607C86.7598 40.0999 86.6398 39.5557 86.6398 38.9743C86.6398 38.0714 86.8898 37.2921 87.3998 36.649C87.9098 36.0058 88.5098 35.6842 89.2098 35.6842C89.9098 35.6842 90.5098 36.0058 91.0198 36.649C91.5298 37.2921 91.7798 38.059 91.7798 38.9743C91.7698 39.5557 91.6598 40.0999 91.4298 40.607Z" fill="#5B8EAE"/>
<path d="M95.0402 40.8674V34.8809H94.2002V42.9702H94.3002L99.0902 37.0331V42.9702H99.9402V34.8809H99.8702L95.0402 40.8674Z" fill="#5B8EAE"/>
<path d="M101.09 35.7714H102.83V42.9702H103.68V35.7714H105.42V34.8809H101.09V35.7714Z" fill="#5B8EAE"/>
<path d="M112.31 36.2408C111.64 35.1894 110.74 34.6699 109.62 34.6699C108.53 34.6699 107.66 35.177 107.01 36.2037C106.5 37.0077 106.24 37.923 106.24 38.9496C106.24 40.038 106.54 41.0152 107.15 41.881C107.75 42.7468 108.59 43.1798 109.67 43.1798C110.15 43.1798 110.59 43.0932 110.97 42.9076C111.35 42.7221 111.7 42.4624 112 42.116C112.31 41.7697 112.58 41.312 112.81 40.7431L112.1 40.2854C111.84 40.8173 111.6 41.2007 111.38 41.4357C111.16 41.6707 110.89 41.8687 110.57 42.0047C110.25 42.1531 109.93 42.215 109.59 42.215C108.9 42.215 108.31 41.9181 107.84 41.312C107.37 40.706 107.12 39.9391 107.11 38.9991H113.03C113.03 37.8982 112.79 36.9829 112.31 36.2408ZM107.2 38.1085C107.37 37.3664 107.63 36.8098 107.97 36.4387C108.43 35.9316 108.99 35.6718 109.63 35.6718C110.02 35.6718 110.39 35.7708 110.75 35.981C111.11 36.1789 111.39 36.451 111.61 36.785C111.83 37.119 111.99 37.5643 112.1 38.1209H107.2V38.1085Z" fill="#5B8EAE"/>
<path d="M117.01 34.8809L113.99 42.9702H114.9L117.08 37.0825L119.29 42.9702H120.19L117.16 34.8809H117.01Z" fill="#5B8EAE"/>
<path d="M124.63 38.27C124.27 38.1463 123.77 38.0844 123.12 38.0844H122.32V34.8809H121.48V42.9825H123.67C124.44 42.9825 125.01 42.7475 125.39 42.2775C125.77 41.8075 125.96 41.2385 125.96 40.5706C125.96 40.014 125.83 39.5316 125.57 39.111C125.3 38.6658 124.99 38.3936 124.63 38.27ZM123.32 42.092H122.35V39.0368H123.07C123.67 39.0368 124.08 39.0863 124.32 39.1976C124.56 39.3089 124.74 39.4945 124.86 39.7666C124.98 40.0387 125.04 40.3232 125.04 40.5953C125.04 41.5972 124.47 42.092 123.32 42.092Z" fill="#5B8EAE"/>
<path d="M130.66 35.6477C131.66 35.6477 132.45 36.1177 133.03 37.0701L133.7 36.5507C133.5 36.1425 133.26 35.8085 132.98 35.5488C132.7 35.289 132.35 35.0664 131.95 34.9056C131.54 34.7448 131.12 34.6582 130.69 34.6582C130 34.6582 129.37 34.8437 128.81 35.2272C128.25 35.6106 127.81 36.1301 127.49 36.798C127.17 37.466 127.01 38.1957 127.01 38.9873C127.01 40.15 127.35 41.1395 128.04 41.9559C128.73 42.7722 129.59 43.1804 130.63 43.1804C131.31 43.1804 131.91 43.0196 132.44 42.698C132.97 42.3764 133.39 41.9188 133.71 41.3374L133.04 40.7932C132.43 41.7456 131.64 42.2156 130.67 42.2156C130.14 42.2156 129.67 42.0672 129.24 41.7827C128.82 41.4982 128.48 41.0901 128.24 40.5706C128 40.0511 127.87 39.4945 127.87 38.9008C127.87 37.9978 128.13 37.2186 128.66 36.5878C129.19 35.9693 129.85 35.6477 130.66 35.6477Z" fill="#5B8EAE"/>
<path d="M134.59 35.7714H136.33V42.9702H137.18V35.7714H138.92V34.8809H134.59V35.7714Z" fill="#5B8EAE"/>
<path d="M143.09 38.5792C143.68 38.2823 143.97 37.7257 143.97 36.9094C143.97 36.3651 143.81 35.8827 143.5 35.4869C143.18 35.0788 142.67 34.8809 141.95 34.8809H140.07V42.9825H141.98C143.58 42.9825 144.37 42.2404 144.37 40.7437C144.37 39.68 143.94 38.9626 143.09 38.5792ZM140.91 35.7714H141.46C141.95 35.7714 142.27 35.7962 142.42 35.8333C142.58 35.8704 142.72 36.0064 142.87 36.2291C143.01 36.4517 143.08 36.7362 143.08 37.0702C143.08 37.3918 143.01 37.6515 142.88 37.8494C142.74 38.0473 142.6 38.171 142.45 38.2205C142.3 38.27 141.97 38.2947 141.47 38.2947H140.92V35.7714H140.91ZM143.21 41.5601C143.08 41.7827 142.92 41.9312 142.74 41.993C142.56 42.0549 142.25 42.092 141.82 42.092H140.91V39.2595H142.17C142.54 39.2595 142.84 39.3955 143.07 39.6553C143.3 39.915 143.41 40.2737 143.41 40.7066C143.41 41.053 143.34 41.3375 143.21 41.5601Z" fill="#5B8EAE"/>
<path d="M151.58 36.3645C151.25 35.7955 150.87 35.375 150.43 35.0905C149.99 34.806 149.5 34.6699 148.96 34.6699C148.02 34.6699 147.22 35.0905 146.56 35.9068C145.89 36.7355 145.56 37.7374 145.56 38.9001C145.56 40.0875 145.89 41.1018 146.55 41.9305C147.21 42.7592 148 43.1798 148.94 43.1798C149.46 43.1798 149.95 43.0437 150.39 42.784C150.83 42.5118 151.23 42.116 151.58 41.5842V42.9819H152.41V34.8802H151.58V36.3645ZM151.3 40.6194C151.08 41.1141 150.76 41.4976 150.34 41.7821C149.93 42.0666 149.49 42.215 149.02 42.215C148.56 42.215 148.13 42.0666 147.73 41.7821C147.33 41.4976 147.01 41.0894 146.77 40.5699C146.53 40.0504 146.41 39.5062 146.41 38.9372C146.41 38.3682 146.53 37.8116 146.76 37.3045C147 36.785 147.31 36.3892 147.71 36.1047C148.11 35.8202 148.54 35.6718 149.01 35.6718C149.74 35.6718 150.36 35.981 150.86 36.6118C151.36 37.2427 151.61 38.0219 151.61 38.9619C151.63 39.5804 151.52 40.137 151.3 40.6194Z" fill="#5B8EAE"/>
<path d="M21.95 26.5809C20.47 25.8264 19.3 24.3792 18.69 22.5486V0H17.79V22.5486C17.18 24.3792 16.01 25.8264 14.53 26.5809H0V27.6941H14.53C16.01 28.4486 17.18 29.8958 17.79 31.7264V47.8802H18.69V31.7387C19.3 29.9081 20.47 28.461 21.95 27.7065H158.51V26.5932H21.95V26.5809Z" fill="#5B8EAE"/>
</svg>
