<svg width="38" height="38" viewBox="0 0 38 38" fill="none" xmlns="http://www.w3.org/2000/svg">
<g clip-path="url(#clip0_498_6597)">
<mask id="mask0_498_6597" style="mask-type:luminance" maskUnits="userSpaceOnUse" x="-1" y="1" width="39" height="39">
<path d="M37.1191 1.14355H-0.880859V39.1436H37.1191V1.14355Z" fill="white"/>
</mask>
<g mask="url(#mask0_498_6597)">
<path d="M22.5912 19.276H11.3646V14.8335H22.5912C23.2469 14.8335 23.7029 14.9479 23.9317 15.1474C24.1606 15.3471 24.3023 15.7173 24.3023 16.2581V17.8532C24.3023 18.423 24.1606 18.7932 23.9317 18.9928C23.7029 19.1924 23.2469 19.2778 22.5912 19.2778V19.276ZM23.3614 10.6453H6.60352V29.6436H11.3646V23.4626H20.1389L24.3023 29.6436H29.6338L25.0435 23.4336C26.7358 23.1828 27.4957 22.6642 28.1225 21.8095C28.7492 20.9548 29.0635 19.5882 29.0635 17.7645V16.34C29.0635 15.2583 28.949 14.4036 28.7492 13.7485C28.5494 13.0934 28.208 12.5236 27.7229 12.0118C27.2106 11.5273 26.6402 11.1861 25.9554 10.9575C25.2706 10.7579 24.415 10.6436 23.3614 10.6436V10.6453Z" fill="white"/>
<path d="M56.1191 1.14356C56.1191 11.637 47.6126 20.1436 37.1191 20.1436C34.9857 20.1436 32.9345 19.7919 31.0201 19.1435C31.061 18.692 31.0792 18.2303 31.0792 17.7645V16.34C31.0792 15.1304 30.9528 14.0642 30.6773 13.1607C30.3799 12.1862 29.8704 11.3476 29.1861 10.6257L29.1481 10.5856L29.108 10.5477C28.3791 9.85825 27.5528 9.36609 26.594 9.046L26.5571 9.03371L26.5198 9.02283C25.6071 8.7568 24.5535 8.6284 23.3618 8.6284H21.3467V8.6301H19.651C18.6651 6.33277 18.1191 3.80193 18.1191 1.14356C18.1191 -9.34986 26.6257 -17.8564 37.1191 -17.8564C47.6126 -17.8564 56.1191 -9.34986 56.1191 1.14356Z" fill="white"/>
</g>
<path d="M36.8305 1.43164H-0.59375V38.8559H36.8305V1.43164Z" stroke="white" stroke-width="2"/>
</g>
<defs>
<clipPath id="clip0_498_6597">
<rect width="38" height="38" fill="white"/>
</clipPath>
</defs>
</svg>
