<?xml version="1.0" encoding="UTF-8"?>
<svg id="_Слой_1" data-name="Слой_1" xmlns="http://www.w3.org/2000/svg" version="1.1" viewBox="0 0 26.22 26.22">
  <!-- Generator: Adobe Illustrator 30.0.0, SVG Export Plug-In . SVG Version: 2.1.1 Build 123)  -->
  <defs>
    <style>
      .st0 {
        fill: #4ececb;
      }
    </style>
  </defs>
  <path class="st0" d="M25.93,13.81c-.24,8-8.03,13.65-15.77,11.79v-7.2c0-1.76,2.52-4.59,4.32-4.59h11.45Z"/>
  <path class="st0" d="M25.93,12.17h-10.77c-2,0-5.01-2.38-5.01-4.46V.65c7.66-1.83,15.33,3.65,15.77,11.52Z"/>
  <path class="st0" d="M8.11,24.83C3.61,23.15.41,18.52.3,13.72h3.36c1.87,0,4.46,2.73,4.46,4.59v6.51Z"/>
  <path class="st0" d="M8.11,1.24v6.1c0,2.35-2.86,4.73-5.14,4.73H.3C.55,7.37,3.68,2.89,8.11,1.24Z"/>
</svg>