<svg width="24" height="24" viewBox="0 0 24 24" fill="none" xmlns="http://www.w3.org/2000/svg">
<g clip-path="url(#clip0_294_2958)">
<path d="M0.88668 5.96593C3.16915 0.869925 9.12457 -1.40084 14.188 0.896329C26.1338 6.89008 18.3069 24.3697 5.93261 19.3441C0.860445 17.0557 -1.38705 11.0619 0.88668 5.96593Z" stroke="#5B8EAE" stroke-miterlimit="10" stroke-linecap="round" stroke-dasharray="9.03 9.03"/>
<path d="M17.3008 17.3633L23.9995 23.9995" stroke="#5B8EAE" stroke-miterlimit="10" stroke-linecap="round"/>
<path d="M10.0594 7.01367H9.02749C7.96934 7.01367 6.9549 7.43614 6.20282 8.19306L4.96102 9.44286C4.59372 9.81252 4.59372 10.411 4.96102 10.7807L6.28153 12.1097C7.02486 12.8578 8.0393 13.2891 9.09745 13.2891H10.0594" stroke="#5B8EAE" stroke-miterlimit="10" stroke-linecap="round"/>
<path d="M10.0605 7.01367H11.0925C12.1506 7.01367 13.1651 7.43614 13.9171 8.19306L15.1589 9.44286C15.5262 9.81252 15.5262 10.411 15.1589 10.7807L13.8384 12.1097C13.0951 12.8578 12.0807 13.2891 11.0225 13.2891H10.0605" stroke="#5B8EAE" stroke-miterlimit="10" stroke-linecap="round"/>
<path d="M11.9758 7.22465V8.94092C11.9758 10.0059 11.1188 10.8684 10.0606 10.8684H9.91198C8.85382 10.8684 8.13672 10.0059 8.13672 8.94092V7.19824" stroke="#5B8EAE" stroke-miterlimit="10" stroke-linecap="round"/>
</g>
<defs>
<clipPath id="clip0_294_2958">
<rect width="24" height="24" fill="white"/>
</clipPath>
</defs>
</svg>
