<svg width="26" height="26" viewBox="0 0 26 26" fill="none" xmlns="http://www.w3.org/2000/svg">
<path d="M26 0V26H0V0H26ZM1.7334 1.7334V24.2666H24.2666V9.7373L15.8252 1.7334H1.7334ZM12.7041 17.0459C12.9843 17.0459 13.2251 17.146 13.4258 17.3467C13.6265 17.5474 13.7275 17.7881 13.7275 18.0684C13.7275 18.2538 13.6795 18.4239 13.585 18.5791C13.4941 18.7344 13.3711 18.8594 13.2158 18.9541C13.0643 19.045 12.8935 19.0908 12.7041 19.0908C12.4242 19.0907 12.184 18.9905 11.9834 18.79C11.7827 18.5893 11.6817 18.3486 11.6816 18.0684C11.6816 17.7881 11.7826 17.5474 11.9834 17.3467C12.184 17.1461 12.4241 17.046 12.7041 17.0459ZM13.0225 7.2041C13.6891 7.2041 14.2693 7.33739 14.7617 7.60254C15.2577 7.86767 15.6403 8.23136 15.9092 8.69336C16.1818 9.15537 16.3183 9.68173 16.3184 10.2725C16.3184 10.6891 16.2538 11.0662 16.125 11.4033C16 11.7404 15.8177 12.0415 15.5791 12.3066C15.3443 12.5717 15.0608 12.8072 14.7275 13.0117C14.3942 13.2201 14.1265 13.4398 13.9258 13.6709C13.7252 13.8981 13.5791 14.1692 13.4883 14.4834C13.3975 14.7977 13.3484 15.1897 13.3408 15.6592V15.7275H11.9775V15.6592C11.9851 14.9357 12.0602 14.3597 12.2041 13.9316C12.348 13.5036 12.5532 13.1567 12.8184 12.8916C13.0834 12.6266 13.4015 12.3825 13.7725 12.1592C13.9959 12.0228 14.197 11.8614 14.375 11.6758C14.5529 11.4864 14.6937 11.2686 14.7959 11.0225C14.9018 10.7763 14.9541 10.5032 14.9541 10.2041C14.954 9.83308 14.8675 9.5109 14.6934 9.23828C14.5191 8.96565 14.2857 8.75609 13.9941 8.6084C13.7025 8.46067 13.3785 8.38672 13.0225 8.38672C12.712 8.38676 12.4127 8.4504 12.125 8.5791C11.8371 8.70789 11.5965 8.91098 11.4033 9.1875C11.2102 9.46395 11.0987 9.82564 11.0684 10.2725H9.63672C9.66706 9.62864 9.83373 9.07741 10.1367 8.61914C10.4435 8.16095 10.8468 7.81073 11.3467 7.56836C11.8504 7.32597 12.4089 7.20414 13.0225 7.2041Z" fill="#324B60"/>
</svg>
