<svg width="156" height="22" viewBox="0 0 156 22" fill="none" xmlns="http://www.w3.org/2000/svg">
<g opacity="0.5">
<path opacity="0.5" d="M87.7711 0.995738L86.5273 1.9917L85.2836 0.995738L86.5273 -0.000223032L87.7711 0.995738Z" fill="#A7C1D2"/>
<path opacity="0.3" d="M121.884 0.995738L120.641 1.9917L119.397 0.995738L120.641 -0.000223032L121.884 0.995738Z" fill="#A7C1D2"/>
<path opacity="0.1" d="M155.998 0.995738L154.754 1.9917L153.51 0.995738L154.754 -0.000222659L155.998 0.995738Z" fill="#A7C1D2"/>
<path d="M11.0211 0.996715L9.77734 1.99268L8.53356 0.996715L9.77734 0.000753531L11.0211 0.996715Z" fill="#A7C1D2"/>
<path opacity="0.8" d="M45.1305 0.996715L43.8867 1.99268L42.6429 0.996715L43.8867 0.000753531L45.1305 0.996715Z" fill="#A7C1D2"/>
<path opacity="0.6" d="M79.2438 0.997691L78 1.99365L76.7562 0.997691L78 0.00173009L79.2438 0.997691Z" fill="#A7C1D2"/>
<path opacity="0.4" d="M113.353 0.997691L112.109 1.99365L110.866 0.997691L112.109 0.00173009L113.353 0.997691Z" fill="#A7C1D2"/>
<path opacity="0.2" d="M147.466 0.997692L146.223 1.99365L144.979 0.997691L146.223 0.00173084L147.466 0.997692Z" fill="#A7C1D2"/>
<path d="M2.48988 0.998668L1.24609 1.99463L0.00231134 0.998668L1.24609 0.00270666L2.48988 0.998668Z" fill="#A7C1D2"/>
<path opacity="0.8" d="M36.6032 0.998668L35.3594 1.99463L34.1156 0.998668L35.3594 0.00270666L36.6032 0.998668Z" fill="#A7C1D2"/>
<path opacity="0.6" d="M70.7125 0.998668L69.4688 1.99463L68.225 0.998668L69.4688 0.00270666L70.7125 0.998668Z" fill="#A7C1D2"/>
<path opacity="0.4" d="M104.826 0.999644L103.582 1.99561L102.338 0.999644L103.582 0.00368322L104.826 0.999644Z" fill="#A7C1D2"/>
<path opacity="0.2" d="M138.935 0.999644L137.691 1.99561L136.448 0.999644L137.691 0.00368322L138.935 0.999644Z" fill="#A7C1D2"/>
<path opacity="0.9" d="M28.0719 1.00062L26.8281 1.99658L25.5843 1.00062L26.8281 0.00465978L28.0719 1.00062Z" fill="#A7C1D2"/>
<path opacity="0.7" d="M62.1813 1.00062L60.9375 1.99658L59.6937 1.00062L60.9375 0.00465978L62.1813 1.00062Z" fill="#A7C1D2"/>
<path opacity="0.5" d="M96.2946 1.00062L95.0508 1.99658L93.807 1.00062L95.0508 0.00465978L96.2946 1.00062Z" fill="#A7C1D2"/>
<path opacity="0.3" d="M130.408 1.0016L129.164 1.99756L127.92 1.0016L129.164 0.00563634L130.408 1.0016Z" fill="#A7C1D2"/>
<path opacity="0.9" d="M19.5407 1.00257L18.2969 1.99854L17.0531 1.00257L18.2969 0.00661291L19.5407 1.00257Z" fill="#A7C1D2"/>
<path opacity="0.7" d="M53.6539 1.00257L52.4102 1.99854L51.1664 1.00257L52.4102 0.00661291L53.6539 1.00257Z" fill="#A7C1D2"/>
<path opacity="0.5" d="M87.7672 7.40931L86.5234 8.40527L85.2797 7.40931L86.5234 6.41335L87.7672 7.40931Z" fill="#A7C1D2"/>
<path opacity="0.3" d="M121.881 7.40931L120.637 8.40527L119.393 7.40931L120.637 6.41335L121.881 7.40931Z" fill="#A7C1D2"/>
<path opacity="0.1" d="M155.994 7.40931L154.75 8.40527L153.506 7.40931L154.75 6.41335L155.994 7.40931Z" fill="#A7C1D2"/>
<path d="M11.0172 7.41029L9.77344 8.40625L8.52966 7.41029L9.77344 6.41433L11.0172 7.41029Z" fill="#A7C1D2"/>
<path opacity="0.8" d="M45.1266 7.41029L43.8828 8.40625L42.639 7.41029L43.8828 6.41433L45.1266 7.41029Z" fill="#A7C1D2"/>
<path opacity="0.6" d="M79.2399 7.41127L77.9961 8.40723L76.7523 7.41127L77.9961 6.4153L79.2399 7.41127Z" fill="#A7C1D2"/>
<path opacity="0.4" d="M113.349 7.41127L112.105 8.40723L110.862 7.41127L112.105 6.4153L113.349 7.41127Z" fill="#A7C1D2"/>
<path opacity="0.2" d="M147.463 7.41127L146.219 8.40723L144.975 7.41127L146.219 6.41531L147.463 7.41127Z" fill="#A7C1D2"/>
<path d="M2.48597 7.41224L1.24219 8.4082L-0.00159491 7.41224L1.24219 6.41628L2.48597 7.41224Z" fill="#A7C1D2"/>
<path opacity="0.8" d="M36.5993 7.41224L35.3555 8.4082L34.1117 7.41224L35.3555 6.41628L36.5993 7.41224Z" fill="#A7C1D2"/>
<path opacity="0.6" d="M70.7086 7.41224L69.4648 8.4082L68.2211 7.41224L69.4648 6.41628L70.7086 7.41224Z" fill="#A7C1D2"/>
<path opacity="0.4" d="M104.822 7.41322L103.578 8.40918L102.334 7.41322L103.578 6.41726L104.822 7.41322Z" fill="#A7C1D2"/>
<path opacity="0.2" d="M138.931 7.41322L137.688 8.40918L136.444 7.41322L137.688 6.41726L138.931 7.41322Z" fill="#A7C1D2"/>
<path opacity="0.9" d="M28.068 7.4142L26.8242 8.41016L25.5804 7.4142L26.8242 6.41823L28.068 7.4142Z" fill="#A7C1D2"/>
<path opacity="0.7" d="M62.1774 7.4142L60.9336 8.41016L59.6898 7.4142L60.9336 6.41823L62.1774 7.4142Z" fill="#A7C1D2"/>
<path opacity="0.5" d="M96.2907 7.4142L95.0469 8.41016L93.8031 7.4142L95.0469 6.41823L96.2907 7.4142Z" fill="#A7C1D2"/>
<path opacity="0.3" d="M130.404 7.41517L129.16 8.41113L127.916 7.41517L129.16 6.41921L130.404 7.41517Z" fill="#A7C1D2"/>
<path opacity="0.9" d="M19.5368 7.41615L18.293 8.41211L17.0492 7.41615L18.293 6.42019L19.5368 7.41615Z" fill="#A7C1D2"/>
<path opacity="0.7" d="M53.65 7.41615L52.4062 8.41211L51.1625 7.41615L52.4062 6.42019L53.65 7.41615Z" fill="#A7C1D2"/>
<path opacity="0.5" d="M87.7711 14.3507L86.5273 15.3467L85.2836 14.3507L86.5273 13.3548L87.7711 14.3507Z" fill="#A7C1D2"/>
<path opacity="0.3" d="M121.884 14.3507L120.641 15.3467L119.397 14.3507L120.641 13.3548L121.884 14.3507Z" fill="#A7C1D2"/>
<path opacity="0.1" d="M155.998 14.3507L154.754 15.3467L153.51 14.3507L154.754 13.3548L155.998 14.3507Z" fill="#A7C1D2"/>
<path d="M11.0211 14.3517L9.77734 15.3477L8.53356 14.3517L9.77734 13.3557L11.0211 14.3517Z" fill="#A7C1D2"/>
<path opacity="0.8" d="M45.1305 14.3517L43.8867 15.3477L42.6429 14.3517L43.8867 13.3557L45.1305 14.3517Z" fill="#A7C1D2"/>
<path opacity="0.6" d="M79.2438 14.3527L78 15.3486L76.7562 14.3527L78 13.3567L79.2438 14.3527Z" fill="#A7C1D2"/>
<path opacity="0.4" d="M113.353 14.3527L112.109 15.3486L110.866 14.3527L112.109 13.3567L113.353 14.3527Z" fill="#A7C1D2"/>
<path opacity="0.2" d="M147.466 14.3527L146.223 15.3486L144.979 14.3527L146.223 13.3567L147.466 14.3527Z" fill="#A7C1D2"/>
<path d="M2.48988 14.3536L1.24609 15.3496L0.00231134 14.3536L1.24609 13.3577L2.48988 14.3536Z" fill="#A7C1D2"/>
<path opacity="0.8" d="M36.6032 14.3536L35.3594 15.3496L34.1156 14.3536L35.3594 13.3577L36.6032 14.3536Z" fill="#A7C1D2"/>
<path opacity="0.6" d="M70.7125 14.3536L69.4688 15.3496L68.225 14.3536L69.4688 13.3577L70.7125 14.3536Z" fill="#A7C1D2"/>
<path opacity="0.4" d="M104.826 14.3546L103.582 15.3506L102.338 14.3546L103.582 13.3587L104.826 14.3546Z" fill="#A7C1D2"/>
<path opacity="0.2" d="M138.935 14.3546L137.691 15.3506L136.448 14.3546L137.691 13.3587L138.935 14.3546Z" fill="#A7C1D2"/>
<path opacity="0.9" d="M28.0719 14.3556L26.8281 15.3516L25.5843 14.3556L26.8281 13.3596L28.0719 14.3556Z" fill="#A7C1D2"/>
<path opacity="0.7" d="M62.1813 14.3556L60.9375 15.3516L59.6937 14.3556L60.9375 13.3596L62.1813 14.3556Z" fill="#A7C1D2"/>
<path opacity="0.5" d="M96.2946 14.3556L95.0508 15.3516L93.807 14.3556L95.0508 13.3596L96.2946 14.3556Z" fill="#A7C1D2"/>
<path opacity="0.3" d="M130.408 14.3566L129.164 15.3525L127.92 14.3566L129.164 13.3606L130.408 14.3566Z" fill="#A7C1D2"/>
<path opacity="0.9" d="M19.5407 14.3571L18.2969 15.353L17.0531 14.3571L18.2969 13.3611L19.5407 14.3571Z" fill="#A7C1D2"/>
<path opacity="0.7" d="M53.6539 14.3571L52.4102 15.353L51.1664 14.3571L52.4102 13.3611L53.6539 14.3571Z" fill="#A7C1D2"/>
<path opacity="0.5" d="M87.7672 20.924L86.5234 21.9199L85.2797 20.924L86.5234 19.928L87.7672 20.924Z" fill="#A7C1D2"/>
<path opacity="0.3" d="M121.881 20.924L120.637 21.9199L119.393 20.924L120.637 19.928L121.881 20.924Z" fill="#A7C1D2"/>
<path opacity="0.1" d="M155.994 20.924L154.75 21.9199L153.506 20.924L154.75 19.928L155.994 20.924Z" fill="#A7C1D2"/>
<path d="M11.0172 20.9249L9.77344 21.9209L8.52966 20.9249L9.77344 19.929L11.0172 20.9249Z" fill="#A7C1D2"/>
<path opacity="0.8" d="M45.1266 20.9249L43.8828 21.9209L42.639 20.9249L43.8828 19.929L45.1266 20.9249Z" fill="#A7C1D2"/>
<path opacity="0.6" d="M79.2399 20.9259L77.9961 21.9219L76.7523 20.9259L77.9961 19.93L79.2399 20.9259Z" fill="#A7C1D2"/>
<path opacity="0.4" d="M113.349 20.9259L112.105 21.9219L110.862 20.9259L112.105 19.93L113.349 20.9259Z" fill="#A7C1D2"/>
<path opacity="0.2" d="M147.463 20.9259L146.219 21.9219L144.975 20.9259L146.219 19.93L147.463 20.9259Z" fill="#A7C1D2"/>
<path d="M2.48597 20.9269L1.24219 21.9229L-0.00159491 20.9269L1.24219 19.9309L2.48597 20.9269Z" fill="#A7C1D2"/>
<path opacity="0.8" d="M36.5993 20.9269L35.3555 21.9229L34.1117 20.9269L35.3555 19.9309L36.5993 20.9269Z" fill="#A7C1D2"/>
<path opacity="0.6" d="M70.7086 20.9269L69.4648 21.9229L68.2211 20.9269L69.4648 19.9309L70.7086 20.9269Z" fill="#A7C1D2"/>
<path opacity="0.4" d="M104.822 20.9279L103.578 21.9238L102.334 20.9279L103.578 19.9319L104.822 20.9279Z" fill="#A7C1D2"/>
<path opacity="0.2" d="M138.931 20.9279L137.688 21.9238L136.444 20.9279L137.688 19.9319L138.931 20.9279Z" fill="#A7C1D2"/>
<path opacity="0.9" d="M28.068 20.9288L26.8242 21.9248L25.5804 20.9288L26.8242 19.9329L28.068 20.9288Z" fill="#A7C1D2"/>
<path opacity="0.7" d="M62.1774 20.9288L60.9336 21.9248L59.6898 20.9288L60.9336 19.9329L62.1774 20.9288Z" fill="#A7C1D2"/>
<path opacity="0.5" d="M96.2907 20.9288L95.0469 21.9248L93.8031 20.9288L95.0469 19.9329L96.2907 20.9288Z" fill="#A7C1D2"/>
<path opacity="0.3" d="M130.404 20.9298L129.16 21.9258L127.916 20.9298L129.16 19.9339L130.404 20.9298Z" fill="#A7C1D2"/>
<path opacity="0.9" d="M19.5368 20.9303L18.293 21.9263L17.0492 20.9303L18.293 19.9343L19.5368 20.9303Z" fill="#A7C1D2"/>
<path opacity="0.7" d="M53.65 20.9303L52.4062 21.9263L51.1625 20.9303L52.4062 19.9343L53.65 20.9303Z" fill="#A7C1D2"/>
</g>
</svg>
