<svg width="156" height="23" viewBox="0 0 156 23" fill="none" xmlns="http://www.w3.org/2000/svg">
<g opacity="0.5">
<path opacity="0.5" d="M87.7704 1.04162L86.5266 2.08301L85.2828 1.04162L86.5266 0.000240395L87.7704 1.04162Z" fill="#3F3F3F"/>
<path opacity="0.3" d="M121.884 1.04162L120.64 2.08301L119.396 1.04162L120.64 0.000240395L121.884 1.04162Z" fill="#3F3F3F"/>
<path opacity="0.1" d="M155.997 1.04162L154.753 2.08301L153.509 1.04162L154.753 0.000240701L155.997 1.04162Z" fill="#3F3F3F"/>
<path d="M11.0243 1.0426L9.78053 2.08398L8.53675 1.0426L9.78053 0.00121696L11.0243 1.0426Z" fill="#3F3F3F"/>
<path opacity="0.8" d="M45.1298 1.0426L43.886 2.08398L42.6422 1.0426L43.886 0.00121696L45.1298 1.0426Z" fill="#3F3F3F"/>
<path opacity="0.6" d="M79.2431 1.04358L77.9993 2.08496L76.7555 1.04358L77.9993 0.00219352L79.2431 1.04358Z" fill="#3F3F3F"/>
<path opacity="0.4" d="M113.352 1.04358L112.109 2.08496L110.865 1.04358L112.109 0.00219352L113.352 1.04358Z" fill="#3F3F3F"/>
<path opacity="0.2" d="M147.466 1.04358L146.222 2.08496L144.978 1.04358L146.222 0.00219428L147.466 1.04358Z" fill="#3F3F3F"/>
<path d="M2.49307 1.04455L1.24928 2.08594L0.00550055 1.04455L1.24928 0.00317008L2.49307 1.04455Z" fill="#3F3F3F"/>
<path opacity="0.8" d="M36.6024 1.04455L35.3587 2.08594L34.1149 1.04455L35.3587 0.00317008L36.6024 1.04455Z" fill="#3F3F3F"/>
<path opacity="0.6" d="M70.7118 1.04455L69.468 2.08594L68.2243 1.04455L69.468 0.00317008L70.7118 1.04455Z" fill="#3F3F3F"/>
<path opacity="0.4" d="M104.825 1.04553L103.581 2.08691L102.338 1.04553L103.581 0.00414664L104.825 1.04553Z" fill="#3F3F3F"/>
<path opacity="0.2" d="M138.934 1.04553L137.691 2.08691L136.447 1.04553L137.691 0.00414664L138.934 1.04553Z" fill="#3F3F3F"/>
<path opacity="0.9" d="M28.0751 1.04651L26.8313 2.08789L25.5875 1.04651L26.8313 0.00512321L28.0751 1.04651Z" fill="#3F3F3F"/>
<path opacity="0.7" d="M62.1806 1.04651L60.9368 2.08789L59.693 1.04651L60.9368 0.00512321L62.1806 1.04651Z" fill="#3F3F3F"/>
<path opacity="0.5" d="M96.2938 1.04651L95.0501 2.08789L93.8063 1.04651L95.0501 0.00512321L96.2938 1.04651Z" fill="#3F3F3F"/>
<path opacity="0.3" d="M130.407 1.04748L129.163 2.08887L127.92 1.04748L129.163 0.00609977L130.407 1.04748Z" fill="#3F3F3F"/>
<path opacity="0.9" d="M19.5438 1.04846L18.3001 2.08984L17.0563 1.04846L18.3001 0.00707633L19.5438 1.04846Z" fill="#3F3F3F"/>
<path opacity="0.7" d="M53.6532 1.04846L52.4094 2.08984L51.1657 1.04846L52.4094 0.00707633L53.6532 1.04846Z" fill="#3F3F3F"/>
<path opacity="0.5" d="M87.7665 7.74768L86.5227 8.78906L85.2789 7.74768L86.5227 6.7063L87.7665 7.74768Z" fill="#3F3F3F"/>
<path opacity="0.3" d="M121.88 7.74768L120.636 8.78906L119.392 7.74768L120.636 6.7063L121.88 7.74768Z" fill="#3F3F3F"/>
<path opacity="0.1" d="M155.993 7.74768L154.749 8.78906L153.506 7.74768L154.749 6.7063L155.993 7.74768Z" fill="#3F3F3F"/>
<path d="M11.0204 7.74866L9.77663 8.79004L8.53284 7.74866L9.77663 6.70727L11.0204 7.74866Z" fill="#3F3F3F"/>
<path opacity="0.8" d="M45.1259 7.74866L43.8821 8.79004L42.6383 7.74866L43.8821 6.70727L45.1259 7.74866Z" fill="#3F3F3F"/>
<path opacity="0.6" d="M79.2392 7.74963L77.9954 8.79102L76.7516 7.74963L77.9954 6.70825L79.2392 7.74963Z" fill="#3F3F3F"/>
<path opacity="0.4" d="M113.349 7.74963L112.105 8.79102L110.861 7.74963L112.105 6.70825L113.349 7.74963Z" fill="#3F3F3F"/>
<path opacity="0.2" d="M147.462 7.74963L146.218 8.79102L144.974 7.74963L146.218 6.70825L147.462 7.74963Z" fill="#3F3F3F"/>
<path d="M2.48916 7.75061L1.24538 8.79199L0.0015943 7.75061L1.24538 6.70922L2.48916 7.75061Z" fill="#3F3F3F"/>
<path opacity="0.8" d="M36.5985 7.75061L35.3548 8.79199L34.111 7.75061L35.3548 6.70922L36.5985 7.75061Z" fill="#3F3F3F"/>
<path opacity="0.6" d="M70.7079 7.75061L69.4641 8.79199L68.2203 7.75061L69.4641 6.70922L70.7079 7.75061Z" fill="#3F3F3F"/>
<path opacity="0.4" d="M104.821 7.75159L103.577 8.79297L102.334 7.75159L103.577 6.7102L104.821 7.75159Z" fill="#3F3F3F"/>
<path opacity="0.2" d="M138.931 7.75159L137.687 8.79297L136.443 7.75159L137.687 6.7102L138.931 7.75159Z" fill="#3F3F3F"/>
<path opacity="0.9" d="M28.0712 7.75256L26.8274 8.79395L25.5836 7.75256L26.8274 6.71118L28.0712 7.75256Z" fill="#3F3F3F"/>
<path opacity="0.7" d="M62.1767 7.75256L60.9329 8.79395L59.6891 7.75256L60.9329 6.71118L62.1767 7.75256Z" fill="#3F3F3F"/>
<path opacity="0.5" d="M96.2899 7.75256L95.0462 8.79395L93.8024 7.75256L95.0462 6.71118L96.2899 7.75256Z" fill="#3F3F3F"/>
<path opacity="0.3" d="M130.403 7.75354L129.159 8.79492L127.916 7.75354L129.159 6.71215L130.403 7.75354Z" fill="#3F3F3F"/>
<path opacity="0.9" d="M19.5399 7.75451L18.2962 8.7959L17.0524 7.75451L18.2962 6.71313L19.5399 7.75451Z" fill="#3F3F3F"/>
<path opacity="0.7" d="M53.6493 7.75451L52.4055 8.7959L51.1618 7.75451L52.4055 6.71313L53.6493 7.75451Z" fill="#3F3F3F"/>
<path opacity="0.5" d="M87.7704 15.0055L86.5266 16.0469L85.2828 15.0055L86.5266 13.9641L87.7704 15.0055Z" fill="#3F3F3F"/>
<path opacity="0.3" d="M121.884 15.0055L120.64 16.0469L119.396 15.0055L120.64 13.9641L121.884 15.0055Z" fill="#3F3F3F"/>
<path opacity="0.1" d="M155.997 15.0055L154.753 16.0469L153.509 15.0055L154.753 13.9641L155.997 15.0055Z" fill="#3F3F3F"/>
<path d="M11.0243 15.0065L9.78053 16.0479L8.53675 15.0065L9.78053 13.9651L11.0243 15.0065Z" fill="#3F3F3F"/>
<path opacity="0.8" d="M45.1298 15.0065L43.886 16.0479L42.6422 15.0065L43.886 13.9651L45.1298 15.0065Z" fill="#3F3F3F"/>
<path opacity="0.6" d="M79.2431 15.0074L77.9993 16.0488L76.7555 15.0074L77.9993 13.9661L79.2431 15.0074Z" fill="#3F3F3F"/>
<path opacity="0.4" d="M113.352 15.0074L112.109 16.0488L110.865 15.0074L112.109 13.9661L113.352 15.0074Z" fill="#3F3F3F"/>
<path opacity="0.2" d="M147.466 15.0074L146.222 16.0488L144.978 15.0074L146.222 13.9661L147.466 15.0074Z" fill="#3F3F3F"/>
<path d="M2.49307 15.0084L1.24928 16.0498L0.00550055 15.0084L1.24928 13.967L2.49307 15.0084Z" fill="#3F3F3F"/>
<path opacity="0.8" d="M36.6024 15.0084L35.3587 16.0498L34.1149 15.0084L35.3587 13.967L36.6024 15.0084Z" fill="#3F3F3F"/>
<path opacity="0.6" d="M70.7118 15.0084L69.468 16.0498L68.2243 15.0084L69.468 13.967L70.7118 15.0084Z" fill="#3F3F3F"/>
<path opacity="0.4" d="M104.825 15.0094L103.581 16.0508L102.338 15.0094L103.581 13.968L104.825 15.0094Z" fill="#3F3F3F"/>
<path opacity="0.2" d="M138.934 15.0094L137.691 16.0508L136.447 15.0094L137.691 13.968L138.934 15.0094Z" fill="#3F3F3F"/>
<path opacity="0.9" d="M28.0751 15.0104L26.8313 16.0518L25.5875 15.0104L26.8313 13.969L28.0751 15.0104Z" fill="#3F3F3F"/>
<path opacity="0.7" d="M62.1806 15.0104L60.9368 16.0518L59.693 15.0104L60.9368 13.969L62.1806 15.0104Z" fill="#3F3F3F"/>
<path opacity="0.5" d="M96.2938 15.0104L95.0501 16.0518L93.8063 15.0104L95.0501 13.969L96.2938 15.0104Z" fill="#3F3F3F"/>
<path opacity="0.3" d="M130.407 15.0114L129.163 16.0527L127.92 15.0114L129.163 13.97L130.407 15.0114Z" fill="#3F3F3F"/>
<path opacity="0.9" d="M19.5438 15.0123L18.3001 16.0537L17.0563 15.0123L18.3001 13.9709L19.5438 15.0123Z" fill="#3F3F3F"/>
<path opacity="0.7" d="M53.6532 15.0123L52.4094 16.0537L51.1657 15.0123L52.4094 13.9709L53.6532 15.0123Z" fill="#3F3F3F"/>
<path opacity="0.5" d="M87.7665 21.8785L86.5227 22.9199L85.2789 21.8785L86.5227 20.8372L87.7665 21.8785Z" fill="#3F3F3F"/>
<path opacity="0.3" d="M121.88 21.8785L120.636 22.9199L119.392 21.8785L120.636 20.8372L121.88 21.8785Z" fill="#3F3F3F"/>
<path opacity="0.1" d="M155.993 21.8785L154.749 22.9199L153.506 21.8785L154.749 20.8372L155.993 21.8785Z" fill="#3F3F3F"/>
<path d="M11.0204 21.8795L9.77663 22.9209L8.53284 21.8795L9.77663 20.8381L11.0204 21.8795Z" fill="#3F3F3F"/>
<path opacity="0.8" d="M45.1259 21.8795L43.8821 22.9209L42.6383 21.8795L43.8821 20.8381L45.1259 21.8795Z" fill="#3F3F3F"/>
<path opacity="0.6" d="M79.2392 21.8805L77.9954 22.9219L76.7516 21.8805L77.9954 20.8391L79.2392 21.8805Z" fill="#3F3F3F"/>
<path opacity="0.4" d="M113.349 21.8805L112.105 22.9219L110.861 21.8805L112.105 20.8391L113.349 21.8805Z" fill="#3F3F3F"/>
<path opacity="0.2" d="M147.462 21.8805L146.218 22.9219L144.974 21.8805L146.218 20.8391L147.462 21.8805Z" fill="#3F3F3F"/>
<path d="M2.48916 21.8815L1.24538 22.9229L0.0015943 21.8815L1.24538 20.8401L2.48916 21.8815Z" fill="#3F3F3F"/>
<path opacity="0.8" d="M36.5985 21.8815L35.3548 22.9229L34.111 21.8815L35.3548 20.8401L36.5985 21.8815Z" fill="#3F3F3F"/>
<path opacity="0.6" d="M70.7079 21.8815L69.4641 22.9229L68.2203 21.8815L69.4641 20.8401L70.7079 21.8815Z" fill="#3F3F3F"/>
<path opacity="0.4" d="M104.821 21.8824L103.577 22.9238L102.334 21.8824L103.577 20.8411L104.821 21.8824Z" fill="#3F3F3F"/>
<path opacity="0.2" d="M138.931 21.8824L137.687 22.9238L136.443 21.8824L137.687 20.8411L138.931 21.8824Z" fill="#3F3F3F"/>
<path opacity="0.9" d="M28.0712 21.8834L26.8274 22.9248L25.5836 21.8834L26.8274 20.842L28.0712 21.8834Z" fill="#3F3F3F"/>
<path opacity="0.7" d="M62.1767 21.8834L60.9329 22.9248L59.6891 21.8834L60.9329 20.842L62.1767 21.8834Z" fill="#3F3F3F"/>
<path opacity="0.5" d="M96.2899 21.8834L95.0462 22.9248L93.8024 21.8834L95.0462 20.842L96.2899 21.8834Z" fill="#3F3F3F"/>
<path opacity="0.3" d="M130.403 21.8844L129.159 22.9258L127.916 21.8844L129.159 20.843L130.403 21.8844Z" fill="#3F3F3F"/>
<path opacity="0.9" d="M19.5399 21.8854L18.2962 22.9268L17.0524 21.8854L18.2962 20.844L19.5399 21.8854Z" fill="#3F3F3F"/>
<path opacity="0.7" d="M53.6493 21.8854L52.4055 22.9268L51.1618 21.8854L52.4055 20.844L53.6493 21.8854Z" fill="#3F3F3F"/>
</g>
</svg>
