<svg width="88" height="88" viewBox="0 0 88 88" fill="none" xmlns="http://www.w3.org/2000/svg">
<path opacity="0.7" d="M84.78 27.48H72.73C71.38 25.16 69.75 23.02 67.89 21.1L75.56 13.35C75.41 13.2 75.27 13.04 75.12 12.88L67.45 20.63C65.55 18.74 63.44 17.1 61.14 15.74V3.45C60.93 3.36 60.71 3.28 60.5 3.2V15.39C55.93 12.81 50.69 11.32 45.11 11.27V0.02C44.9 0.02 44.68 0.01 44.47 0V11.27C38.89 11.33 33.64 12.81 29.08 15.39V2.59C28.86 2.67 28.65 2.75 28.44 2.83V15.75C26.14 17.12 24.03 18.77 22.13 20.64L13.7 12.12C13.54 12.27 13.39 12.41 13.23 12.56L21.68 21.1C19.82 23.01 18.19 25.15 16.84 27.48H3.22C3.13 27.69 3.05 27.91 2.97 28.12H16.48C13.93 32.74 12.45 38.04 12.4 43.68H0C0 43.79 0 43.89 0 44C0 44.11 0 44.21 0 44.32H12.39C12.44 49.95 13.92 55.26 16.47 59.88H2.97C3.05 60.09 3.14 60.31 3.22 60.52H16.84C18.19 62.84 19.82 64.98 21.68 66.9L13.23 75.44C13.38 75.59 13.54 75.74 13.7 75.88L22.13 67.36C24.03 69.23 26.14 70.88 28.44 72.24V85.17C28.65 85.25 28.87 85.33 29.08 85.41V72.61C33.65 75.19 38.89 76.68 44.47 76.73V88C44.68 88 44.9 87.99 45.11 87.98V76.73C50.69 76.67 55.94 75.18 60.5 72.61V84.8C60.71 84.71 60.93 84.64 61.14 84.55V72.25C63.44 70.88 65.57 69.23 67.45 67.36L75.12 75.11C75.27 74.96 75.41 74.8 75.56 74.64L67.89 66.89C69.75 64.98 71.38 62.84 72.73 60.51H84.78C84.87 60.3 84.95 60.08 85.03 59.87H73.09C75.64 55.25 77.12 49.95 77.17 44.31H87.99C87.99 44.2 87.99 44.1 87.99 43.99C87.99 43.88 87.99 43.78 87.99 43.67H77.17C77.11 38.02 75.64 32.73 73.09 28.11H85.03C84.95 27.9 84.86 27.68 84.78 27.47V27.48ZM22.12 21.55L27.98 27.48H17.58C18.86 25.32 20.39 23.34 22.12 21.55ZM17.58 60.52H27.98L22.12 66.45C20.39 64.67 18.86 62.68 17.58 60.52ZM28.43 71.49C26.3 70.19 24.34 68.64 22.57 66.9L28.43 60.99V71.5V71.49ZM28.43 59.88H17.21C14.61 55.29 13.09 49.98 13.04 44.32H28.43V59.88ZM28.43 43.68H13.04C13.09 38.02 14.6 32.71 17.21 28.12H28.43V43.68ZM28.43 27.01L22.57 21.1C24.34 19.34 26.3 17.8 28.43 16.51V27.02V27.01ZM29.07 28.58L33.01 32.56C31.19 34.47 29.82 36.81 29.07 39.42V28.58ZM29.52 28.12H40.27C37.68 28.88 35.36 30.26 33.46 32.1L29.52 28.12ZM44.01 43.68H29.08C29.16 39.55 30.81 35.79 33.45 33.01L44.01 43.68ZM44 44.32L33.44 54.99C30.8 52.21 29.14 48.45 29.07 44.32H44ZM29.07 48.58C29.83 51.18 31.19 53.53 33.01 55.44L29.07 59.42V48.58ZM33.46 55.91C35.35 57.74 37.68 59.13 40.27 59.89H29.52L33.46 55.91ZM44.46 76.09C38.87 76.04 33.62 74.51 29.07 71.88V60.53H44.46V76.09ZM44.46 59.88C40.37 59.8 36.66 58.12 33.9 55.45L44.46 44.78V59.88ZM44.46 43.22L33.9 32.55C36.66 29.88 40.36 28.21 44.46 28.12V43.22ZM44.46 27.48H29.07V16.13C33.62 13.5 38.87 11.97 44.46 11.92V27.48ZM45.1 28.12C49.19 28.2 52.9 29.86 55.66 32.55L45.1 43.22V28.12ZM49.3 28.12H60.05L56.11 32.1C54.21 30.27 51.89 28.88 49.3 28.12ZM45.55 44.32H60.48C60.4 48.45 58.75 52.21 56.11 54.99L45.55 44.32ZM60.05 59.88H49.3C51.89 59.12 54.21 57.74 56.11 55.9L60.05 59.88ZM45.1 44.78L55.66 55.45C52.92 58.12 49.2 59.8 45.1 59.88V44.78ZM60.49 71.88C55.95 74.51 50.69 76.04 45.1 76.09V60.53H60.49V71.88ZM60.49 59.43L56.55 55.45C58.37 53.54 59.74 51.19 60.49 48.59V59.43ZM45.56 43.68L56.12 33.01C58.76 35.79 60.42 39.55 60.49 43.68H45.56ZM60.49 39.41C59.73 36.79 58.37 34.46 56.55 32.55L60.49 28.57V39.41ZM60.49 27.48H45.1V11.92C50.69 11.97 55.94 13.5 60.49 16.13V27.48ZM71.99 27.48H61.59L67.45 21.55C69.18 23.33 70.71 25.32 71.99 27.48ZM61.14 16.51C63.27 17.79 65.23 19.35 67 21.09L61.14 27.02V16.51ZM61.14 71.49V60.98L67 66.89C65.23 68.65 63.27 70.19 61.14 71.48V71.49ZM67.45 66.45L61.59 60.52H71.99C70.71 62.68 69.18 64.66 67.45 66.45ZM72.36 59.88H61.14V44.32H76.53C76.48 49.98 74.97 55.28 72.36 59.88ZM76.53 43.68H61.14V28.12H72.36C74.96 32.71 76.48 38.02 76.53 43.68Z" fill="url(#paint0_radial_1564_14321)"/>
<defs>
<radialGradient id="paint0_radial_1564_14321" cx="0" cy="0" r="1" gradientUnits="userSpaceOnUse" gradientTransform="translate(44 43.99) scale(43.99 43.99)">
<stop offset="0.19" stop-color="white" stop-opacity="0"/>
<stop offset="0.79" stop-color="white" stop-opacity="0.3"/>
<stop offset="0.94" stop-color="white" stop-opacity="0"/>
</radialGradient>
</defs>
</svg>
