<svg width="160" height="10" viewBox="0 0 160 10" fill="none" xmlns="http://www.w3.org/2000/svg">
<g opacity="0.5">
<path d="M157.008 7.87258L158.28 9.30469L159.552 7.87258L158.28 6.44047L157.008 7.87258Z" fill="#ECEDF0"/>
<path d="M148.283 7.87063L149.555 9.30273L150.828 7.87063L149.555 6.43852L148.283 7.87063Z" fill="#ECEDF0"/>
<path opacity="0.9" d="M139.568 7.87844L140.841 9.31055L142.113 7.87844L140.841 6.44633L139.568 7.87844Z" fill="#ECEDF0"/>
<path opacity="0.9" d="M130.844 7.87453L132.116 9.30664L133.388 7.87453L132.116 6.44243L130.844 7.87453Z" fill="#ECEDF0"/>
<path opacity="0.8" d="M122.119 7.87258L123.391 9.30469L124.663 7.87258L123.391 6.44047L122.119 7.87258Z" fill="#ECEDF0"/>
<path opacity="0.8" d="M113.396 7.87063L114.668 9.30273L115.94 7.87063L114.668 6.43852L113.396 7.87063Z" fill="#ECEDF0"/>
<path opacity="0.7" d="M104.68 7.87844L105.952 9.31055L107.224 7.87844L105.952 6.44633L104.68 7.87844Z" fill="#ECEDF0"/>
<path opacity="0.7" d="M95.9552 7.87453L97.2273 9.30664L98.4994 7.87453L97.2273 6.44243L95.9552 7.87453Z" fill="#ECEDF0"/>
<path opacity="0.6" d="M87.2316 7.87258L88.5037 9.30469L89.7758 7.87258L88.5037 6.44047L87.2316 7.87258Z" fill="#ECEDF0"/>
<path opacity="0.6" d="M78.5069 7.87063L79.7791 9.30273L81.0512 7.87063L79.7791 6.43852L78.5069 7.87063Z" fill="#ECEDF0"/>
<path opacity="0.5" d="M69.7823 7.86867L71.0544 9.30078L72.3265 7.86867L71.0544 6.43657L69.7823 7.86867Z" fill="#ECEDF0"/>
<path opacity="0.5" d="M61.0665 7.87649L62.3386 9.30859L63.6107 7.87649L62.3386 6.44438L61.0665 7.87649Z" fill="#ECEDF0"/>
<path opacity="0.4" d="M52.3429 7.87258L53.615 9.30469L54.8871 7.87258L53.615 6.44047L52.3429 7.87258Z" fill="#ECEDF0"/>
<path opacity="0.4" d="M43.6183 7.87063L44.8904 9.30273L46.1625 7.87063L44.8904 6.43852L43.6183 7.87063Z" fill="#ECEDF0"/>
<path opacity="0.3" d="M34.8946 7.86867L36.1667 9.30078L37.4389 7.86867L36.1667 6.43657L34.8946 7.86867Z" fill="#ECEDF0"/>
<path opacity="0.3" d="M26.1788 7.87649L27.4509 9.30859L28.723 7.87649L27.4509 6.44438L26.1788 7.87649Z" fill="#ECEDF0"/>
<path opacity="0.2" d="M17.4542 7.87453L18.7263 9.30664L19.9984 7.87453L18.7263 6.44243L17.4542 7.87453Z" fill="#ECEDF0"/>
<path opacity="0.2" d="M8.7296 7.87258L10.0017 9.30469L11.2738 7.87258L10.0017 6.44047L8.7296 7.87258Z" fill="#ECEDF0"/>
<path opacity="0.1" d="M0.00597031 7.86867L1.27808 9.30078L2.55018 7.86867L1.27808 6.43657L0.00597031 7.86867Z" fill="#ECEDF0"/>
<path d="M157.002 1.43703L158.274 2.86914L159.546 1.43703L158.274 0.00492692L157.002 1.43703Z" fill="#ECEDF0"/>
<path d="M148.277 1.43508L149.55 2.86719L150.822 1.43508L149.55 0.0029738L148.277 1.43508Z" fill="#ECEDF0"/>
<path opacity="0.9" d="M139.563 1.44094L140.835 2.87305L142.107 1.44094L140.835 0.00883317L139.563 1.44094Z" fill="#ECEDF0"/>
<path opacity="0.9" d="M130.838 1.43899L132.11 2.87109L133.382 1.43899L132.11 0.00688005L130.838 1.43899Z" fill="#ECEDF0"/>
<path opacity="0.8" d="M122.113 1.43703L123.385 2.86914L124.658 1.43703L123.385 0.00492692L122.113 1.43703Z" fill="#ECEDF0"/>
<path opacity="0.8" d="M113.39 1.43508L114.662 2.86719L115.934 1.43508L114.662 0.0029738L113.39 1.43508Z" fill="#ECEDF0"/>
<path opacity="0.7" d="M104.674 1.44289L105.946 2.875L107.218 1.44289L105.946 0.0107863L104.674 1.44289Z" fill="#ECEDF0"/>
<path opacity="0.7" d="M95.9493 1.43899L97.2214 2.87109L98.4935 1.43899L97.2214 0.00688005L95.9493 1.43899Z" fill="#ECEDF0"/>
<path opacity="0.6" d="M87.2257 1.43703L88.4978 2.86914L89.7699 1.43703L88.4978 0.00492692L87.2257 1.43703Z" fill="#ECEDF0"/>
<path opacity="0.6" d="M78.5011 1.43508L79.7732 2.86719L81.0453 1.43508L79.7732 0.0029738L78.5011 1.43508Z" fill="#ECEDF0"/>
<path opacity="0.5" d="M69.7765 1.43313L71.0486 2.86523L72.3207 1.43313L71.0486 0.00102067L69.7765 1.43313Z" fill="#ECEDF0"/>
<path opacity="0.5" d="M61.0607 1.44094L62.3328 2.87305L63.6049 1.44094L62.3328 0.00883317L61.0607 1.44094Z" fill="#ECEDF0"/>
<path opacity="0.4" d="M52.337 1.43703L53.6091 2.86914L54.8812 1.43703L53.6091 0.00492692L52.337 1.43703Z" fill="#ECEDF0"/>
<path opacity="0.4" d="M43.6124 1.43508L44.8845 2.86719L46.1566 1.43508L44.8845 0.0029738L43.6124 1.43508Z" fill="#ECEDF0"/>
<path opacity="0.3" d="M34.8888 1.43313L36.1609 2.86523L37.433 1.43313L36.1609 0.00102067L34.8888 1.43313Z" fill="#ECEDF0"/>
<path opacity="0.3" d="M26.173 1.44094L27.4451 2.87305L28.7172 1.44094L27.4451 0.00883317L26.173 1.44094Z" fill="#ECEDF0"/>
<path opacity="0.2" d="M17.4484 1.43899L18.7205 2.87109L19.9926 1.43899L18.7205 0.00688005L17.4484 1.43899Z" fill="#ECEDF0"/>
<path opacity="0.2" d="M8.72472 1.43508L9.99683 2.86719L11.2689 1.43508L9.99683 0.0029738L8.72472 1.43508Z" fill="#ECEDF0"/>
<path opacity="0.1" d="M0.000110939 1.43313L1.27222 2.86523L2.54432 1.43313L1.27222 0.00102067L0.000110939 1.43313Z" fill="#ECEDF0"/>
</g>
</svg>
